<?xml version="1.0" standalone="no"?>
<!DOCTYPE svg PUBLIC "-//W3C//DTD SVG 20010904//EN"
 "http://www.w3.org/TR/2001/REC-SVG-20010904/DTD/svg10.dtd">
<svg version="1.0" xmlns="http://www.w3.org/2000/svg"
 width="300.000000pt" height="300.000000pt" viewBox="0 0 300.000000 300.000000"
 preserveAspectRatio="xMidYMid meet">

<g transform="translate(0.000000,300.000000) scale(0.100000,-0.100000)"
fill="#000000" stroke="none">
<path d="M1355 2994 c-422 -61 -716 -213 -980 -506 -172 -190 -304 -461 -352
-718 -24 -131 -24 -411 0 -535 92 -474 390 -870 812 -1079 126 -62 220 -95
367 -128 136 -30 432 -33 573 -5 411 83 750 309 977 652 98 147 156 277 201
450 74 283 60 601 -38 875 -127 356 -390 657 -724 829 -223 114 -405 160 -650
166 -86 2 -169 2 -186 -1z m397 -43 c665 -114 1167 -668 1218 -1344 38 -510
-196 -1008 -616 -1309 -433 -309 -1011 -359 -1489 -128 -414 200 -706 570
-806 1023 -32 144 -37 398 -11 552 106 621 592 1102 1222 1210 119 20 349 18
482 -4z"/>
<path d="M1330 2750 c-45 -45 -13 -130 50 -130 41 0 70 31 70 75 0 44 -29 75
-70 75 -17 0 -39 -9 -50 -20z m88 -12 c7 -7 12 -26 12 -43 0 -38 -16 -55 -52
-55 -30 0 -48 23 -48 62 0 31 18 48 50 48 14 0 31 -5 38 -12z"/>
<path d="M1598 2764 c-3 -5 -9 -40 -13 -77 l-7 -68 64 3 63 3 1 35 c0 19 4 43
9 53 5 12 2 24 -8 34 -17 17 -102 30 -109 17z m99 -28 c3 -3 3 -12 0 -21 -6
-15 -42 -20 -71 -9 -15 6 -22 35 -10 46 5 6 72 -7 81 -16z m-29 -52 c16 -5 22
-13 20 -28 -2 -17 -9 -21 -41 -20 -45 2 -51 6 -42 33 7 22 23 25 63 15z"/>
<path d="M1797 2733 c-7 -12 -37 -115 -37 -128 0 -11 89 -39 98 -31 4 5 -12
12 -65 31 -18 6 -3 45 18 45 10 0 29 -4 43 -10 16 -6 26 -6 26 0 0 5 -18 15
-40 21 -34 10 -39 15 -34 33 9 28 8 28 38 16 15 -5 34 -10 42 -10 24 0 7 17
-23 23 -16 3 -35 8 -44 12 -10 3 -19 3 -22 -2z"/>
<path d="M1129 2719 l-26 -10 20 -69 c22 -75 27 -79 82 -55 39 16 59 52 49 91
-12 47 -64 65 -125 43z m89 -21 c24 -31 23 -57 -3 -84 -36 -36 -55 -28 -72 30
-12 40 -12 50 -1 57 20 13 64 11 76 -3z"/>
<path d="M2000 2616 c-25 -56 -43 -70 -77 -62 -27 6 -27 6 -9 -9 41 -31 64
-19 100 52 29 59 30 63 15 63 -5 0 -19 -20 -29 -44z"/>
<path d="M947 2644 c-7 -7 50 -128 62 -132 12 -4 95 38 89 44 -3 2 -22 -3 -43
-11 -20 -9 -39 -15 -41 -13 -2 2 -15 30 -29 61 -25 58 -27 61 -38 51z"/>
<path d="M2072 2546 c-36 -26 -58 -47 -52 -51 6 -4 17 -1 25 5 19 16 87 -24
83 -49 -1 -9 2 -17 7 -19 6 -2 16 29 23 69 11 60 11 73 0 80 -19 12 -17 13
-86 -35z m73 -13 c-9 -49 -9 -49 -42 -28 l-27 18 30 23 c40 33 47 30 39 -13z"/>
<path d="M815 2560 c-4 -6 -1 -36 5 -68 16 -82 20 -93 31 -86 5 3 7 14 4 24
-9 28 46 63 85 55 17 -4 30 -5 30 -2 0 8 -126 87 -138 87 -6 0 -14 -5 -17 -10z
m59 -33 l28 -23 -27 -18 c-15 -10 -28 -16 -30 -14 -8 8 -16 78 -9 78 5 0 22
-10 38 -23z"/>
<path d="M2216 2444 c-50 -55 -57 -88 -10 -43 l26 24 24 -28 c28 -32 30 -50 9
-67 -8 -7 -12 -17 -9 -22 8 -13 44 21 44 41 0 9 10 21 22 26 13 6 24 18 26 27
3 16 -63 99 -77 97 -3 -1 -28 -25 -55 -55z m94 -1 c11 -14 19 -31 17 -37 -7
-20 -39 -18 -63 5 -22 21 -23 24 -7 41 21 24 28 23 53 -9z"/>
<path d="M700 2470 c0 -8 17 -32 38 -53 34 -37 35 -39 12 -33 -51 13 -130 19
-130 10 0 -6 25 -34 55 -64 61 -60 77 -49 18 12 -42 43 -42 42 45 24 40 -9 64
-10 68 -4 4 6 -19 36 -50 67 -31 30 -56 49 -56 41z"/>
<path d="M560 2325 c0 -4 6 -18 14 -33 33 -66 32 -69 -29 -64 -37 3 -55 1 -55
-7 0 -7 22 -11 58 -11 36 0 66 -6 80 -16 20 -14 22 -14 22 0 0 9 -5 16 -10 16
-6 0 -22 27 -37 60 -14 33 -30 60 -34 60 -5 0 -9 -2 -9 -5z"/>
<path d="M2415 2315 c-5 -2 -36 -11 -68 -20 -31 -9 -55 -21 -52 -26 4 -5 16
-7 28 -4 31 8 75 -49 59 -76 -7 -11 -8 -20 -2 -24 5 -3 27 25 49 62 30 50 37
70 29 80 -10 13 -23 15 -43 8z m13 -52 c-12 -21 -23 -39 -24 -41 -1 -2 -11 10
-23 27 l-22 30 33 10 c56 16 59 14 36 -26z"/>
<path d="M2473 2157 c-35 -17 -63 -37 -63 -45 0 -10 17 -5 55 17 30 17 55 29
55 26 0 -2 -16 -33 -35 -69 -22 -38 -32 -67 -26 -70 6 -4 40 9 77 27 39 20 62
37 56 41 -7 4 -31 -4 -55 -18 -24 -15 -47 -26 -51 -26 -4 0 10 30 30 66 20 37
33 69 28 74 -5 4 -37 -6 -71 -23z"/>
<path d="M436 2121 l-26 -51 60 -30 c33 -16 63 -30 68 -30 10 0 55 90 48 97
-2 3 -14 -13 -26 -36 -23 -45 -23 -45 -51 -31 -19 11 -19 11 1 50 11 22 16 40
10 40 -5 0 -17 -15 -26 -32 -21 -42 -18 -40 -38 -32 -20 8 -20 27 0 65 8 17
13 33 10 36 -2 3 -16 -18 -30 -46z"/>
<path d="M1455 2035 c-160 -44 -329 -179 -375 -299 -6 -18 -5 -28 5 -36 10 -9
18 0 38 44 39 85 144 184 251 237 81 40 95 43 183 47 125 6 199 -15 260 -74
41 -38 43 -43 43 -98 0 -71 -24 -121 -90 -187 -68 -68 -319 -227 -334 -212 -3
4 -6 78 -6 165 0 134 -2 158 -15 158 -13 0 -15 -26 -15 -173 0 -161 -1 -175
-20 -192 -11 -10 -20 -25 -20 -34 0 -9 9 -22 20 -29 19 -11 20 -23 20 -182 0
-144 2 -170 15 -170 13 0 15 24 15 160 0 128 3 162 14 166 7 3 105 -13 217
-35 184 -36 223 -41 207 -26 -3 3 -97 24 -209 47 -112 23 -210 47 -218 54 -24
22 -2 48 71 88 117 62 261 161 305 209 114 123 117 251 7 326 -82 56 -253 77
-369 46z"/>
<path d="M378 1973 c-16 -19 -43 -91 -36 -98 12 -12 134 -43 141 -36 5 5 -5
13 -22 19 -36 13 -34 9 -20 51 11 32 17 35 57 31 12 -1 22 3 22 8 0 14 -50 24
-64 13 -8 -7 -15 -4 -24 10 -15 24 -34 24 -54 2z m47 -62 c-8 -37 -13 -41 -42
-30 -19 7 -21 12 -13 40 12 40 30 53 49 35 9 -9 11 -24 6 -45z"/>
<path d="M2538 1974 c-72 -39 -25 -150 56 -130 36 9 56 33 56 69 0 38 -7 50
-37 66 -28 14 -42 14 -75 -5z m82 -24 c31 -31 25 -56 -18 -79 -33 -18 -70 -6
-78 24 -8 33 1 54 28 65 35 13 46 12 68 -10z"/>
<path d="M2543 1614 c-8 -22 10 -49 32 -49 10 0 22 7 28 16 15 24 1 49 -28 49
-15 0 -28 -7 -32 -16z m45 -15 c-2 -6 -8 -10 -13 -10 -5 0 -11 4 -13 10 -2 6
4 11 13 11 9 0 15 -5 13 -11z"/>
<path d="M623 1584 c-3 -8 -1 -20 5 -26 16 -16 42 -2 42 22 0 24 -38 28 -47 4z
m31 -15 c-3 -5 -10 -7 -15 -3 -5 3 -7 10 -3 15 3 5 10 7 15 3 5 -3 7 -10 3
-15z"/>
<path d="M373 1253 c-69 -16 -84 -34 -26 -30 34 2 37 0 44 -31 11 -52 22 -52
16 -1 -6 41 -4 47 14 52 21 6 39 -23 39 -64 0 -10 5 -19 10 -19 12 0 12 -2 -1
60 -6 27 -16 50 -22 49 -7 0 -40 -7 -74 -16z"/>
<path d="M2536 1248 c-8 -13 -18 -41 -21 -63 l-7 -41 59 -12 c72 -15 83 -15
83 -2 0 6 -9 10 -20 10 -26 0 -36 25 -24 59 7 20 16 26 39 26 17 1 29 5 28 10
-3 14 -43 19 -55 7 -7 -7 -17 -3 -29 9 -25 25 -35 24 -53 -3z m50 -63 c-5 -27
-11 -35 -22 -31 -9 3 -20 6 -25 6 -15 0 -10 44 7 69 15 20 18 21 31 8 11 -11
14 -25 9 -52z"/>
<path d="M423 1091 c-68 -27 -83 -46 -29 -35 34 6 35 5 42 -31 6 -33 3 -40
-17 -56 -13 -10 -21 -21 -17 -25 8 -8 58 22 58 35 0 4 10 6 23 4 37 -7 52 20
39 65 -21 68 -28 72 -99 43z m77 -31 c24 -58 -16 -85 -45 -30 -23 44 -20 50
26 59 4 0 12 -12 19 -29z"/>
<path d="M2471 1056 c-12 -27 -18 -53 -13 -58 4 -4 34 -19 67 -32 l60 -25 22
47 c25 53 27 62 14 62 -5 0 -15 -16 -21 -35 -14 -42 -24 -49 -49 -35 -19 9
-19 12 -5 46 8 20 13 39 10 42 -3 3 -13 -11 -21 -31 -16 -38 -22 -41 -48 -31
-14 5 -14 10 -1 41 24 55 10 64 -15 9z"/>
<path d="M2413 918 c-11 -13 -27 -34 -36 -47 -17 -25 -16 -25 44 -63 33 -21
64 -38 69 -38 17 0 11 15 -10 28 -18 11 -19 15 -6 35 27 42 28 65 7 86 -27 27
-43 26 -68 -1z m57 -13 c11 -13 10 -22 -3 -50 -19 -40 -23 -41 -56 -16 l-24
18 22 32 c25 34 42 39 61 16z"/>
<path d="M485 905 c-30 -30 -32 -64 -4 -99 40 -51 129 -18 129 48 0 68 -78 99
-125 51z m93 -7 c20 -20 14 -65 -10 -82 -45 -32 -88 -14 -88 35 0 46 67 78 98
47z"/>
<path d="M610 741 c-30 -27 -52 -52 -47 -57 4 -4 25 10 47 31 22 21 42 37 44
34 3 -3 -1 -29 -9 -59 -18 -66 -19 -90 -4 -90 17 0 115 98 106 106 -4 4 -28
-12 -52 -36 -25 -24 -45 -42 -45 -40 0 3 7 30 15 60 16 60 19 100 8 100 -5 0
-33 -22 -63 -49z"/>
<path d="M2297 760 c-14 -11 -29 -29 -32 -40 -9 -28 20 -75 54 -90 26 -10 35
-10 56 4 54 36 55 94 1 127 -39 24 -47 24 -79 -1z m86 -32 c21 -25 22 -46 0
-70 -22 -25 -49 -23 -78 7 -30 29 -31 49 -4 76 23 23 54 19 82 -13z"/>
<path d="M776 661 c-3 -5 6 -16 20 -25 l25 -17 -41 -48 c-40 -48 -49 -71 -30
-71 6 0 10 3 10 8 0 4 18 27 39 52 39 44 39 45 60 26 12 -11 24 -16 28 -13 3
4 4 8 2 10 -2 2 -27 22 -56 45 -28 24 -54 38 -57 33z"/>
<path d="M2130 601 c0 -12 82 -111 91 -111 12 0 80 62 75 67 -3 3 -20 -7 -38
-21 l-34 -25 -39 49 c-38 48 -55 61 -55 41z"/>
<path d="M2033 542 l-42 -28 35 -59 c20 -33 38 -62 40 -64 2 -2 25 9 51 25 26
15 42 29 35 32 -6 2 -25 -6 -41 -17 l-30 -21 -15 22 c-15 21 -14 23 17 42 42
26 41 25 34 32 -3 4 -22 -3 -41 -15 -34 -22 -35 -22 -45 -2 -14 26 -16 24 24
45 19 11 35 23 35 28 0 13 -12 9 -57 -20z"/>
<path d="M888 495 c-39 -69 -39 -69 20 -99 46 -24 51 -13 8 14 -41 24 -40 24
-24 49 11 18 12 18 45 -2 19 -10 36 -17 40 -14 3 4 -11 16 -31 28 -30 18 -34
24 -26 40 13 24 17 24 58 -1 36 -22 42 -24 42 -12 0 4 -21 19 -48 34 l-47 27
-37 -64z"/>
<path d="M1940 413 l0 -77 -55 54 c-30 29 -58 51 -62 47 -4 -4 18 -33 48 -63
75 -75 89 -69 89 37 0 46 -4 79 -10 79 -6 0 -10 -32 -10 -77z"/>
<path d="M1060 475 c0 -2 -11 -34 -25 -70 -18 -48 -21 -65 -11 -65 7 0 19 20
26 45 7 25 16 48 20 50 5 3 13 -19 20 -48 19 -82 21 -87 36 -87 8 0 14 2 14 5
0 2 11 34 25 70 16 44 20 65 12 65 -7 0 -21 -24 -31 -52 l-19 -53 -14 50 c-19
69 -31 95 -43 95 -5 0 -10 -2 -10 -5z"/>
<path d="M1722 418 c-44 -10 -44 -10 -37 -46 3 -20 11 -54 16 -74 9 -35 11
-37 42 -31 44 8 81 22 75 29 -3 2 -24 0 -47 -5 -34 -7 -43 -6 -48 5 -9 25 5
41 41 48 20 4 34 11 31 16 -3 4 -21 4 -41 -2 -28 -7 -39 -7 -45 4 -17 25 -9
36 31 43 22 4 42 11 46 16 6 11 -6 10 -64 -3z"/>
<path d="M1237 398 c-3 -13 -9 -46 -13 -74 l-6 -52 42 -7 c54 -9 93 16 98 63
5 44 -13 70 -56 82 -52 14 -59 13 -65 -12z m90 -20 c18 -15 16 -58 -4 -80 -10
-11 -30 -18 -51 -18 l-34 0 7 46 c10 70 14 76 44 69 14 -4 32 -11 38 -17z"/>
<path d="M1494 353 c3 -21 6 -55 6 -77 l0 -39 47 6 c74 8 107 69 67 125 -12
18 -25 22 -71 22 l-56 0 7 -37z m94 11 c44 -31 17 -104 -39 -104 -26 0 -27 2
-31 56 -1 31 -1 58 1 60 10 9 48 3 69 -12z"/>
</g>
</svg>
